HIERARCHY
ROOT root
{
	OFFSET 0.000000 0.000000 0.000000
	CHANNELS 6 Xposition Yposition Zposition Zrotation Yrotation Xrotation
	JOINT lhip
	{
		OFFSET 0.058581 -0.082280 -0.017664
		CHANNELS 3 Zrotation Yrotation Xrotation
		JOINT lknee
		{
			OFFSET 0.043451 -0.386469 0.008037
			CHANNELS 3 Zrotation Yrotation Xrotation
			JOINT lankle
			{
				OFFSET -0.014790 -0.426874 -0.037428
				CHANNELS 3 Zrotation Yrotation Xrotation
				JOINT ltoe
				{
					OFFSET 0.041054 -0.060286 0.122042
					CHANNELS 3 Zrotation Yrotation Xrotation
					End Site
					{
						OFFSET 0.000000 0.000000 0.000000
					}
				}
			}
		}
	}
	JOINT rhip
	{
		OFFSET -0.060310 -0.090513 -0.013543
		CHANNELS 3 Zrotation Yrotation Xrotation
		JOINT rknee
		{
			OFFSET -0.043257 -0.383688 -0.004843
			CHANNELS 3 Zrotation Yrotation Xrotation
			JOINT rankle
			{
				OFFSET 0.019056 -0.420046 -0.034562
				CHANNELS 3 Zrotation Yrotation Xrotation
				JOINT rtoe
				{
					OFFSET -0.034840 -0.062106 0.130323
					CHANNELS 3 Zrotation Yrotation Xrotation
					End Site
					{
						OFFSET 0.000000 0.000000 0.000000
					}
				}
			}
		}
	}
	JOINT lowerback
	{
		OFFSET 0.004439 0.124404 -0.038385
		CHANNELS 3 Zrotation Yrotation Xrotation
		JOINT upperback
		{
			OFFSET 0.004488 0.137956 0.026820
			CHANNELS 3 Zrotation Yrotation Xrotation
			JOINT chest
			{
				OFFSET -0.002265 0.056032 0.002855
				CHANNELS 3 Zrotation Yrotation Xrotation
				JOINT lowerneck
				{
					OFFSET -0.013390 0.211636 -0.033468
					CHANNELS 3 Zrotation Yrotation Xrotation
					JOINT upperneck
					{
						OFFSET 0.010113 0.088937 0.050410
						CHANNELS 3 Zrotation Yrotation Xrotation
						End Site
						{
							OFFSET 0.000000 0.000000 0.000000
						}
					}
				}
				JOINT lclavicle
				{
					OFFSET 0.071702 0.114000 -0.018898
					CHANNELS 3 Zrotation Yrotation Xrotation
					JOINT lshoulder
					{
						OFFSET 0.122921 0.045205 -0.019046
						CHANNELS 3 Zrotation Yrotation Xrotation
						JOINT lelbow
						{
							OFFSET 0.255332 -0.015649 -0.022946
							CHANNELS 3 Zrotation Yrotation Xrotation
							JOINT lwrist
							{
								OFFSET 0.265709 0.012698 -0.007375
								CHANNELS 3 Zrotation Yrotation Xrotation
								End Site
								{
									OFFSET 0.000000 0.000000 0.000000
								}
							}
						}
					}
				}
				JOINT rclavicle
				{
					OFFSET -0.082954 0.112472 -0.023707
					CHANNELS 3 Zrotation Yrotation Xrotation
					JOINT rshoulder
					{
						OFFSET -0.113228 0.046853 -0.008472
						CHANNELS 3 Zrotation Yrotation Xrotation
						JOINT relbow
						{
							OFFSET -0.260127 -0.014369 -0.031269
							CHANNELS 3 Zrotation Yrotation Xrotation
							JOINT rwrist
							{
								OFFSET -0.269108 0.006794 -0.006027
								CHANNELS 3 Zrotation Yrotation Xrotation
								End Site
								{
									OFFSET 0.000000 0.000000 0.000000
								}
							}
						}
					}
				}
			}
		}
	}
}
MOTION
Frames: 11
Frame Time: 0.033333
-2.472385 1.091433 0.918964 87.480061 -9.011330 109.361535 5.322032 -3.255261 -53.437971 -10.806801 18.881757 46.081421 1.989427 0.269658 -15.587065 0.000000 -0.000000 0.000000 -1.216939 0.916630 -0.175362 -0.775599 5.628639 57.718406 10.030683 -4.796682 15.033737 0.000000 -0.000000 0.000000 -5.778958 8.548583 24.521556 -0.613153 -2.581019 -3.774743 0.083335 2.029647 -1.837370 -1.780750 -11.267568 -19.743592 5.487365 -3.426842 -11.866154 -18.845929 7.386968 7.949359 -56.014275 22.198687 6.564215 -118.724068 -83.575773 140.634192 14.432570 -15.541097 -28.385115 11.576736 5.142584 -1.925323 61.616719 2.948516 12.811174 -104.919085 78.370789 -86.506980 2.516771 16.304230 -14.455674 
-2.363263 1.090824 0.905721 92.112149 -10.819733 107.711094 0.108798 -6.692458 -45.214786 -10.939992 14.106862 47.903002 8.874411 6.209634 -27.073431 0.000000 -0.000000 0.000000 -1.511479 1.839630 -11.177620 -0.292455 -0.246951 76.435077 7.870025 -4.561665 4.531155 0.000000 -0.000000 0.000000 -5.550402 4.996628 26.553597 -0.170822 -2.979153 -5.390474 -0.676468 0.184401 -0.686884 -0.363875 -9.302905 -22.461133 3.534777 -4.451958 -9.507259 -25.653594 5.176781 5.211029 -53.962567 13.041867 11.901416 171.762412 -88.741580 -150.761893 15.624430 -14.408050 -28.320205 19.087020 3.395678 -1.575445 60.027176 -2.643988 14.699781 -43.679792 68.967913 -29.277917 -0.273776 15.698971 -15.413196 
-2.254336 1.089347 0.893196 97.237578 -12.004523 105.517072 -3.735609 -8.158585 -35.374025 -11.668572 6.837044 48.150770 10.319009 9.705465 -34.475492 0.000000 -0.000000 0.000000 -3.558661 1.777426 -24.180175 0.402032 -5.306985 90.379975 6.215261 -5.913525 -3.711121 0.000000 -0.000000 0.000000 -4.673437 0.332153 29.122471 0.076807 -3.025598 -6.239830 -1.231482 -1.469892 -0.395195 0.173263 -8.061772 -25.145002 2.708272 -4.796687 -7.728069 -30.907195 0.988644 3.115107 -52.243820 3.279278 16.190216 104.766721 -84.879316 -85.408188 16.207219 -13.340083 -27.992352 24.569047 2.292317 -0.447423 57.542046 -7.325195 13.759125 -27.130413 54.655044 -19.122171 -3.108420 14.499166 -13.363105 
-2.111874 1.085356 0.884222 103.086579 -11.794638 101.697140 -5.763413 -4.614964 -18.659888 -12.505896 -6.254055 43.363394 8.303355 10.872306 -38.646519 0.000000 -0.000000 0.000000 -6.334195 -0.821154 -40.550818 -0.161126 -8.682880 98.038554 4.214091 -6.856565 -12.481772 0.000000 -0.000000 0.000000 -2.598061 -6.254793 33.122079 -0.273594 -2.365788 -8.029935 -0.846944 -3.386072 0.106322 -1.071846 -7.630298 -26.675654 3.346773 -5.411944 -6.548093 -30.145761 -3.493536 1.103653 -56.538886 -8.746256 18.835192 143.943905 -77.447330 -121.133430 18.393912 -12.667230 -29.571274 24.889619 0.068107 1.963928 55.929407 -15.469713 10.596295 -15.587060 50.100154 -10.688804 -6.385626 15.018692 -15.088165 
-2.021495 1.081789 0.883330 105.494041 -10.763415 100.384052 -3.618867 -1.819168 -8.348989 -12.498041 -13.912878 37.921954 5.032267 10.122191 -37.552314 0.000000 -0.000000 0.000000 -7.986904 -1.897752 -49.484261 -1.373069 -10.809280 96.039157 3.943926 -6.619345 -16.831062 0.000000 -0.000000 0.000000 -1.448281 -10.525432 33.245955 -0.281585 -1.592652 -8.663046 -0.567320 -4.021164 0.595924 -2.184441 -7.437748 -26.061282 4.060701 -6.065598 -6.152754 -27.550447 -4.074837 0.072162 -60.016772 -15.474644 20.735710 157.929009 -69.730673 -133.673256 19.772066 -12.483033 -34.050565 23.038748 -2.568131 3.325586 54.694437 -20.184631 10.004593 -8.168125 52.775729 -0.911866 -7.194420 16.328426 -15.672370 
-1.894871 1.074388 0.889483 105.719476 -8.948632 99.999139 1.362756 0.272817 3.816259 -11.812352 -20.608727 30.510854 -3.309531 7.852667 -28.582993 0.000000 -0.000000 0.000000 -10.082584 -1.380156 -58.156794 -3.133874 -14.707640 85.380022 4.280739 -5.641605 -20.358877 0.000000 -0.000000 0.000000 0.197554 -14.531894 31.048328 -0.681582 -0.350224 -7.968133 -0.423030 -4.288771 0.722977 -3.196267 -6.123923 -24.594296 4.561208 -7.971301 -5.614248 -24.675930 -3.388777 -0.956753 -61.345787 -21.459609 22.769016 166.753404 -58.731298 -141.124729 19.692923 -14.504285 -38.819752 20.559614 -5.517782 5.753862 53.033550 -24.220088 9.362023 1.447311 55.890824 12.289959 -8.021279 17.386150 -17.133829 
-1.763702 1.063616 0.900605 103.482669 -8.005662 99.856301 5.437282 1.867548 13.004176 -9.818098 -22.613396 25.079622 -12.708733 5.036176 -6.830601 0.000000 -0.000000 0.000000 -11.129772 0.168953 -61.271958 -4.425270 -19.013887 67.548014 3.982870 -4.628479 -19.868830 0.000000 -0.000000 0.000000 0.998988 -16.220337 28.631905 -1.641033 0.930316 -6.219454 -0.561122 -3.982639 0.258540 -3.753704 -4.711214 -23.075290 5.094909 -10.281820 -5.422898 -23.166659 -1.364261 -1.540828 -60.432278 -23.664439 23.476309 170.657123 -51.079259 -143.059453 17.356770 -17.080632 -38.534425 19.248248 -6.994168 8.250473 53.787410 -25.424140 8.295274 4.407039 56.620032 17.364775 -8.537366 17.512456 -18.197281 
-1.630654 1.053311 0.907561 101.532689 -8.675200 98.869141 6.136512 1.905322 19.466285 -7.900689 -25.660492 23.645822 -14.022093 3.934021 7.840014 0.000000 -0.000000 0.000000 -10.248353 0.009838 -59.096040 -3.499683 -22.098601 47.074328 4.404807 -6.014248 -12.979152 0.000000 -0.000000 0.000000 0.312648 -16.801162 27.732332 -2.638287 1.600310 -5.326774 -0.452230 -3.656519 -0.175565 -4.335037 -7.120548 -20.648761 6.641365 -9.195391 -5.593758 -22.865298 1.349218 -0.926435 -59.455196 -22.990119 23.018728 172.341425 -49.243939 -144.117509 18.040359 -16.988745 -38.206537 18.351883 -7.201550 8.949760 56.244375 -25.292264 7.786901 1.836273 56.080074 14.245930 -7.449827 17.710674 -15.923452 
-1.497726 1.041368 0.904976 100.967793 -9.806147 97.276421 5.849859 1.055490 20.527769 -8.268443 -25.020515 33.009044 -12.500993 3.967811 5.270650 0.000000 -0.000000 0.000000 -7.157181 -2.350960 -54.456335 -2.121885 -24.974753 31.849970 3.136288 -8.231322 -4.487055 0.000000 -0.000000 0.000000 -0.312622 -15.239992 27.051085 -2.767296 1.127420 -4.616669 -0.242744 -4.056872 -0.109814 -4.672891 -9.966550 -18.159330 7.509567 -8.307843 -5.712836 -23.805990 3.181107 0.440628 -58.585811 -20.229230 21.766424 171.934384 -53.855259 -144.094747 19.213413 -15.809031 -37.649879 19.183516 -7.221234 8.012982 57.429349 -23.814414 7.638890 -2.246603 54.990875 9.315472 -6.565192 16.819744 -15.511476 
-1.334919 1.021439 0.889692 100.287203 -10.713032 94.811140 7.835680 1.490001 15.679624 -11.142975 -20.629551 52.529815 -10.278644 3.353392 3.155323 0.000000 -0.000000 0.000000 -2.011215 -5.230588 -50.392069 -2.030221 -26.111167 34.434310 -9.467650 -12.223188 -8.517215 0.000000 -0.000000 0.000000 -1.277076 -11.559540 27.401827 -2.167282 1.176746 -4.467968 -0.423423 -5.020664 0.578511 -4.001226 -11.196299 -16.830918 7.154516 -10.542681 -4.599184 -25.804558 4.263604 1.938942 -56.809949 -15.956828 18.969126 168.566806 -65.946170 -141.535793 18.281849 -13.237065 -36.202249 22.832496 -5.926145 6.021695 57.444534 -19.740242 7.093858 -7.238359 51.625067 3.645301 -6.266974 14.411456 -18.597293 
-1.213150 1.003289 0.877679 97.314992 -10.572738 92.901384 9.156021 1.882342 8.921750 -12.025333 -14.658694 67.232106 -8.608379 4.833253 -0.362906 0.000000 -0.000000 0.000000 0.707755 -1.913515 -47.130777 -5.439753 -24.348999 46.867042 -13.848309 -17.932772 -18.943217 0.000000 -0.000000 0.000000 -2.526850 -8.893284 29.380437 -1.809223 2.305947 -4.077941 -0.791142 -4.363902 0.769382 -2.320630 -10.650891 -18.591471 5.474422 -13.563148 -2.938559 -28.102997 3.892969 2.243399 -54.365526 -12.212545 17.168493 148.205470 -77.388305 -123.198526 17.101674 -12.297999 -34.557680 26.885130 -1.868895 4.059813 56.424601 -14.299523 8.490306 -12.333609 46.237668 -3.949127 -7.448556 12.688211 -21.831910 
